<svg width="13" height="15" viewBox="0 0 13 15" fill="none" xmlns="http://www.w3.org/2000/svg">
<g id="Group 1">
<path id="Line 2" d="M1.48828 6.48914L0.488281 6.48914L0.488281 8.48914L1.48828 8.48914L1.48828 6.48914ZM1.48828 8.48914L10.4973 8.48914L10.4973 6.48914L1.48828 6.48914L1.48828 8.48914Z" fill="#4E1710"/>
<path id="Line 3" d="M6.352 1.32471L6.26147 0.176307L4.62095 0.200465L4.71148 1.34887L6.352 1.32471ZM11.6278 8.5798C12.0567 8.42539 12.2793 7.8015 12.125 7.1863C11.9707 6.5711 11.498 6.19756 11.0692 6.35197L11.6278 8.5798ZM5.53174 1.33679C4.71148 1.34887 4.71154 1.34968 4.71161 1.3505C4.71163 1.35079 4.7117 1.35162 4.71174 1.35219C4.71184 1.35332 4.71193 1.35449 4.71203 1.3557C4.71223 1.3581 4.71245 1.36064 4.71268 1.36331C4.71314 1.36865 4.71367 1.37451 4.71428 1.38088C4.71549 1.39363 4.717 1.40843 4.71888 1.42523C4.72264 1.45883 4.72786 1.50043 4.73506 1.54953C4.74947 1.64774 4.77182 1.77594 4.80625 1.93014C4.87523 2.23908 4.99222 2.65012 5.18939 3.13111C5.58621 4.09918 6.29234 5.31308 7.5351 6.53865L8.39706 4.70855C7.36669 3.69244 6.85565 2.76293 6.60359 2.14802C6.47631 1.83751 6.41092 1.59717 6.37864 1.45259C6.36244 1.38004 6.35443 1.33095 6.35115 1.30857C6.3495 1.29737 6.34904 1.29283 6.34933 1.29538C6.34947 1.29666 6.3498 1.2997 6.35026 1.30457C6.35049 1.30701 6.35076 1.3099 6.35105 1.31325C6.35119 1.31493 6.35135 1.31672 6.35151 1.31863C6.35158 1.31959 6.35167 1.32057 6.35175 1.32159C6.35179 1.32209 6.35185 1.32287 6.35187 1.32313C6.35193 1.32392 6.352 1.32471 5.53174 1.33679ZM7.5351 6.53865C8.7529 7.73961 9.70724 8.28034 10.4015 8.50337C10.7481 8.6147 11.025 8.64523 11.2317 8.64165C11.3347 8.63986 11.4194 8.62961 11.4856 8.61715C11.5187 8.61092 11.5471 8.60416 11.5709 8.59766C11.5827 8.59441 11.5934 8.59123 11.6029 8.58822C11.6076 8.58672 11.6121 8.58525 11.6163 8.58385C11.6183 8.58314 11.6203 8.58245 11.6223 8.58178C11.6232 8.58144 11.6242 8.58111 11.6251 8.58078C11.6256 8.58061 11.6263 8.58037 11.6265 8.58029C11.6272 8.58004 11.6278 8.5798 11.3485 7.46588C11.0692 6.35197 11.0698 6.35173 11.0705 6.35149C11.0707 6.35142 11.0714 6.35118 11.0718 6.35103C11.0726 6.35072 11.0735 6.35043 11.0743 6.35014C11.076 6.34956 11.0776 6.34901 11.0791 6.34849C11.0822 6.34744 11.085 6.34652 11.0876 6.3457C11.0928 6.34407 11.0969 6.34285 11.1001 6.34198C11.1065 6.34024 11.1088 6.33987 11.1071 6.34019C11.1038 6.34081 11.0841 6.34425 11.0476 6.34488C10.9752 6.34614 10.8328 6.33641 10.6179 6.26738C10.1893 6.12969 9.45238 5.74928 8.39706 4.70855L7.5351 6.53865Z" fill="#4E1710"/>
<path id="Line 4" d="M6.35201 13.6753L6.26142 14.8237L4.62088 14.7995L4.71147 13.6511L6.35201 13.6753ZM11.6283 6.42088C12.0571 6.57534 12.2797 7.19926 12.1253 7.81444C11.971 8.42962 11.4982 8.80311 11.0694 8.64865L11.6283 6.42088ZM5.53174 13.6632C4.71147 13.6511 4.71153 13.6503 4.7116 13.6495C4.71162 13.6492 4.71169 13.6484 4.71173 13.6478C4.71183 13.6466 4.71192 13.6455 4.71202 13.6443C4.71222 13.6419 4.71244 13.6393 4.71267 13.6367C4.71313 13.6313 4.71366 13.6255 4.71427 13.6191C4.71548 13.6063 4.717 13.5915 4.71888 13.5747C4.72263 13.5411 4.72786 13.4995 4.73506 13.4504C4.74948 13.3522 4.77183 13.224 4.80627 13.0698C4.87527 12.7609 4.99228 12.3499 5.18948 11.8689C5.58636 10.9009 6.29256 9.68704 7.53539 8.46159L8.39723 10.2917C7.36682 11.3077 6.85573 12.2372 6.60364 12.8521C6.47634 13.1625 6.41095 13.4029 6.37866 13.5474C6.36245 13.62 6.35444 13.6691 6.35116 13.6915C6.34951 13.7027 6.34905 13.7072 6.34933 13.7047C6.34948 13.7034 6.34981 13.7003 6.35027 13.6955C6.3505 13.693 6.35077 13.6901 6.35106 13.6868C6.3512 13.6851 6.35136 13.6833 6.35152 13.6814C6.35159 13.6804 6.35167 13.6795 6.35176 13.6784C6.3518 13.6779 6.35186 13.6772 6.35188 13.6769C6.35194 13.6761 6.35201 13.6753 5.53174 13.6632ZM7.53539 8.46159C8.75327 7.26076 9.70764 6.72013 10.4019 6.49718C10.7485 6.38588 11.0255 6.35539 11.2321 6.35899C11.3352 6.36079 11.4198 6.37105 11.4861 6.38352C11.5192 6.38975 11.5476 6.39651 11.5713 6.40301C11.5831 6.40626 11.5938 6.40945 11.6033 6.41246C11.6081 6.41396 11.6125 6.41543 11.6167 6.41683C11.6188 6.41754 11.6208 6.41823 11.6227 6.4189C11.6237 6.41924 11.6246 6.41957 11.6255 6.4199C11.626 6.42007 11.6267 6.42031 11.6269 6.4204C11.6276 6.42064 11.6283 6.42088 11.3488 7.53476C11.0694 8.64865 11.0701 8.64889 11.0707 8.64912C11.0709 8.6492 11.0716 8.64943 11.072 8.64959C11.0729 8.64989 11.0737 8.65019 11.0746 8.65048C11.0762 8.65106 11.0778 8.65161 11.0793 8.65213C11.0824 8.65317 11.0853 8.6541 11.0878 8.65491C11.093 8.65655 11.0972 8.65776 11.1003 8.65863C11.1067 8.66038 11.1091 8.66075 11.1074 8.66043C11.1041 8.65981 11.0843 8.65636 11.0478 8.65573C10.9755 8.65447 10.833 8.66418 10.6181 8.73318C10.1895 8.87083 9.4526 9.25115 8.39723 10.2917L7.53539 8.46159Z" fill="#4E1710"/>
</g>
</svg>
