<svg width="24" height="24" viewBox="0 0 24 24" fill="none" xmlns="http://www.w3.org/2000/svg">
<path d="M7.48828 10.9893L6.48828 10.9893L6.48828 12.9893L7.48828 12.9893L7.48828 10.9893ZM7.48828 12.9893L16.4973 12.9893L16.4973 10.9893L7.48828 10.9893L7.48828 12.9893Z" fill="#E5D1C7"/>
<path d="M12.352 5.82484L12.2615 4.67643L10.621 4.70059L10.7115 5.84899L12.352 5.82484ZM17.6278 13.0799C18.0567 12.9255 18.2793 12.3016 18.125 11.6864C17.9707 11.0712 17.498 10.6977 17.0692 10.8521L17.6278 13.0799ZM11.5317 5.83691C10.7115 5.84899 10.7115 5.84981 10.7116 5.85063C10.7116 5.85091 10.7117 5.85174 10.7117 5.85231C10.7118 5.85345 10.7119 5.85462 10.712 5.85582C10.7122 5.85823 10.7124 5.86076 10.7127 5.86343C10.7131 5.86877 10.7137 5.87463 10.7143 5.881C10.7155 5.89375 10.717 5.90855 10.7189 5.92535C10.7226 5.95895 10.7279 6.00055 10.7351 6.04965C10.7495 6.14786 10.7718 6.27606 10.8063 6.43027C10.8752 6.7392 10.9922 7.15024 11.1894 7.63123C11.5862 8.5993 12.2923 9.8132 13.5351 11.0388L14.3971 9.20868C13.3667 8.19256 12.8556 7.26305 12.6036 6.64814C12.4763 6.33764 12.4109 6.09729 12.3786 5.95271C12.3624 5.88016 12.3544 5.83108 12.3511 5.80869C12.3495 5.79749 12.349 5.79296 12.3493 5.7955C12.3495 5.79678 12.3498 5.79983 12.3503 5.8047C12.3505 5.80713 12.3508 5.81002 12.351 5.81338C12.3512 5.81505 12.3513 5.81685 12.3515 5.81876C12.3516 5.81971 12.3517 5.82069 12.3517 5.82171C12.3518 5.82221 12.3519 5.823 12.3519 5.82325C12.3519 5.82404 12.352 5.82484 11.5317 5.83691ZM13.5351 11.0388C14.7529 12.2397 15.7072 12.7805 16.4015 13.0035C16.7481 13.1148 17.025 13.1453 17.2317 13.1418C17.3347 13.14 17.4194 13.1297 17.4856 13.1173C17.5187 13.111 17.5471 13.1043 17.5709 13.0978C17.5827 13.0945 17.5934 13.0914 17.6029 13.0883C17.6076 13.0868 17.6121 13.0854 17.6163 13.084C17.6183 13.0833 17.6203 13.0826 17.6223 13.0819C17.6232 13.0816 17.6242 13.0812 17.6251 13.0809C17.6256 13.0807 17.6263 13.0805 17.6265 13.0804C17.6272 13.0802 17.6278 13.0799 17.3485 11.966C17.0692 10.8521 17.0698 10.8519 17.0705 10.8516C17.0707 10.8515 17.0714 10.8513 17.0718 10.8512C17.0726 10.8508 17.0735 10.8505 17.0743 10.8503C17.076 10.8497 17.0776 10.8491 17.0791 10.8486C17.0822 10.8476 17.085 10.8466 17.0876 10.8458C17.0928 10.8442 17.0969 10.843 17.1001 10.8421C17.1065 10.8404 17.1088 10.84 17.1071 10.8403C17.1038 10.8409 17.0841 10.8444 17.0476 10.845C16.9752 10.8463 16.8328 10.8365 16.6179 10.7675C16.1893 10.6298 15.4524 10.2494 14.3971 9.20868L13.5351 11.0388Z" fill="#E5D1C7"/>
<path d="M12.352 18.1754L12.2614 19.3238L10.6209 19.2996L10.7115 18.1512L12.352 18.1754ZM17.6283 10.921C18.0571 11.0755 18.2797 11.6994 18.1253 12.3146C17.971 12.9297 17.4982 13.3032 17.0694 13.1488L17.6283 10.921ZM11.5317 18.1633C10.7115 18.1512 10.7115 18.1504 10.7116 18.1496C10.7116 18.1493 10.7117 18.1485 10.7117 18.1479C10.7118 18.1468 10.7119 18.1456 10.712 18.1444C10.7122 18.142 10.7124 18.1394 10.7127 18.1368C10.7131 18.1314 10.7137 18.1256 10.7143 18.1192C10.7155 18.1065 10.717 18.0917 10.7189 18.0749C10.7226 18.0413 10.7279 17.9997 10.7351 17.9506C10.7495 17.8524 10.7718 17.7242 10.8063 17.57C10.8753 17.261 10.9923 16.85 11.1895 16.369C11.5864 15.401 12.2926 14.1872 13.5354 12.9617L14.3972 14.7919C13.3668 15.8079 12.8557 16.7373 12.6036 17.3522C12.4763 17.6627 12.4109 17.903 12.3787 18.0476C12.3625 18.1201 12.3544 18.1692 12.3512 18.1916C12.3495 18.2028 12.349 18.2073 12.3493 18.2048C12.3495 18.2035 12.3498 18.2005 12.3503 18.1956C12.3505 18.1931 12.3508 18.1903 12.3511 18.1869C12.3512 18.1852 12.3514 18.1834 12.3515 18.1815C12.3516 18.1806 12.3517 18.1796 12.3518 18.1786C12.3518 18.1781 12.3519 18.1773 12.3519 18.177C12.3519 18.1762 12.352 18.1754 11.5317 18.1633ZM13.5354 12.9617C14.7533 11.7609 15.7076 11.2202 16.4019 10.9973C16.7485 10.886 17.0255 10.8555 17.2321 10.8591C17.3352 10.8609 17.4198 10.8712 17.4861 10.8836C17.5192 10.8899 17.5476 10.8966 17.5713 10.9031C17.5831 10.9064 17.5938 10.9096 17.6033 10.9126C17.6081 10.9141 17.6125 10.9155 17.6167 10.917C17.6188 10.9177 17.6208 10.9184 17.6227 10.919C17.6237 10.9194 17.6246 10.9197 17.6255 10.92C17.626 10.9202 17.6267 10.9204 17.6269 10.9205C17.6276 10.9208 17.6283 10.921 17.3488 12.0349C17.0694 13.1488 17.0701 13.149 17.0707 13.1492C17.0709 13.1493 17.0716 13.1496 17.072 13.1497C17.0729 13.15 17.0737 13.1503 17.0746 13.1506C17.0762 13.1512 17.0778 13.1517 17.0793 13.1523C17.0824 13.1533 17.0853 13.1542 17.0878 13.155C17.093 13.1567 17.0972 13.1579 17.1003 13.1588C17.1067 13.1605 17.1091 13.1609 17.1074 13.1606C17.1041 13.1599 17.0843 13.1565 17.0478 13.1558C16.9755 13.1546 16.833 13.1643 16.6181 13.2333C16.1895 13.3709 15.4526 13.7513 14.3972 14.7919L13.5354 12.9617Z" fill="#E5D1C7"/>
</svg>
